<svg width="36" height="36" viewBox="0 0 36 36" fill="none" xmlns="http://www.w3.org/2000/svg">
<path d="M18.0001 31.3346C25.3639 31.3346 31.3334 25.3651 31.3334 18.0013C31.3334 10.6375 25.3639 4.66797 18.0001 4.66797C10.6363 4.66797 4.66675 10.6375 4.66675 18.0013C4.66675 25.3651 10.6363 31.3346 18.0001 31.3346Z" stroke="#5262AD" stroke-width="2.5" stroke-linecap="round" stroke-linejoin="round"/>
<path d="M14.6667 13.9551C14.6667 13.3187 14.6667 13.0005 14.7997 12.8229C14.9156 12.6681 15.093 12.5712 15.2859 12.5574C15.5073 12.5416 15.7749 12.7137 16.3102 13.0578L22.6043 17.104C23.0689 17.4027 23.3011 17.552 23.3813 17.7418C23.4514 17.9077 23.4514 18.0949 23.3813 18.2608C23.3011 18.4506 23.0689 18.5999 22.6043 18.8986L16.3102 22.9448C15.7749 23.2889 15.5073 23.461 15.2859 23.4452C15.093 23.4314 14.9156 23.3345 14.7997 23.1797C14.6667 23.0021 14.6667 22.6839 14.6667 22.0475V13.9551Z" stroke="#5262AD" stroke-width="2.5" stroke-linecap="round" stroke-linejoin="round"/>
</svg>
