<svg width="28" height="28" viewBox="0 0 28 28" fill="none" xmlns="http://www.w3.org/2000/svg">
<path fill-rule="evenodd" clip-rule="evenodd" d="M13.9998 1.16797C6.91218 1.16797 1.1665 6.91365 1.1665 14.0013C1.1665 21.089 6.91218 26.8346 13.9998 26.8346C21.0875 26.8346 26.8332 21.089 26.8332 14.0013C26.8332 6.91365 21.0875 1.16797 13.9998 1.16797ZM11.1995 9.47007C11.0832 9.6255 11.0832 9.90391 11.0832 10.4607V17.5416C11.0832 18.0985 11.0832 18.3769 11.1995 18.5323C11.3009 18.6678 11.4562 18.7525 11.6249 18.7646C11.8186 18.7784 12.0528 18.6279 12.5212 18.3267L18.0286 14.7863C18.435 14.525 18.6382 14.3944 18.7084 14.2282C18.7698 14.0831 18.7698 13.9193 18.7084 13.7741C18.6382 13.608 18.435 13.4774 18.0286 13.2161L12.5212 9.67565C12.0528 9.37453 11.8186 9.22398 11.6249 9.23781C11.4562 9.24987 11.3009 9.33461 11.1995 9.47007Z" fill="url(#paint0_linear_1228_13523)"/>
<defs>
<linearGradient id="paint0_linear_1228_13523" x1="1.1665" y1="26.8346" x2="31.5518" y2="18.6185" gradientUnits="userSpaceOnUse">
<stop stop-color="#12A0ED"/>
<stop offset="1" stop-color="#2FD0B2"/>
</linearGradient>
</defs>
</svg>
