<svg width="36" height="36" viewBox="0 0 36 36" fill="none" xmlns="http://www.w3.org/2000/svg">
<path d="M31.3334 13.9986L23.3334 21.9986M23.3334 13.9986L31.3334 21.9986M14.8458 7.81951L10.6249 12.0404C10.3943 12.271 10.279 12.3863 10.1445 12.4688C10.0252 12.5419 9.89511 12.5958 9.75906 12.6284C9.60561 12.6653 9.44255 12.6653 9.11643 12.6653H6.80008C6.05334 12.6653 5.67998 12.6653 5.39476 12.8106C5.14388 12.9384 4.9399 13.1424 4.81207 13.3933C4.66675 13.6785 4.66675 14.0519 4.66675 14.7986V21.1986C4.66675 21.9453 4.66675 22.3187 4.81207 22.6039C4.9399 22.8548 5.14388 23.0588 5.39476 23.1866C5.67998 23.3319 6.05334 23.3319 6.80008 23.3319H9.11643C9.44255 23.3319 9.60561 23.3319 9.75906 23.3688C9.89511 23.4014 10.0252 23.4553 10.1445 23.5284C10.279 23.6109 10.3943 23.7262 10.6249 23.9568L14.8458 28.1777C15.417 28.7489 15.7026 29.0344 15.9478 29.0537C16.1605 29.0705 16.3684 28.9844 16.507 28.8221C16.6667 28.6351 16.6667 28.2312 16.6667 27.4234V8.57376C16.6667 7.76601 16.6667 7.36213 16.507 7.17511C16.3684 7.01284 16.1605 6.92672 15.9478 6.94346C15.7026 6.96276 15.417 7.24835 14.8458 7.81951Z" stroke="#5262AD" stroke-width="2.5" stroke-linecap="round" stroke-linejoin="round"/>
</svg>
